# xmcd CD database file
#
# Track frame offsets:
#	150
#	11997
#	28102
#	42592
#	61867
#	79915
#	94535
#	112825
#	128180
#	141970
#	152475
#	165747
#	178092
#	187240
#	196670
#	213407
#
# Disc length: 3070 seconds
#
# Revision: 0
# Processed by: cddbd v1.4PL0 Copyright (c) Steve Scherf et al.
# Submitted via: CDex 1.40Beta9
#
DISCID=dc0bfc10
DTITLE=Drag The River - Live At The Starlight
DYEAR=2002
DGENRE=Country
TTITLE0=Mars Motors
TTITLE1=Bug Country
TTITLE2=Disbeleive
TTITLE3=Indianapolis
TTITLE4=Tomorrow Morning
TTITLE5=Jig
TTITLE6=All In All
TTITLE7=Back To God
TTITLE8=Barroom Bliss
TTITLE9=Calloused Heart
TTITLE10=Hybrid Moments
TTITLE11=She Thinks I Still Care
TTITLE12=Embrace The Sound
TTITLE13=Get Drunk
TTITLE14=Ride Me Down Easy
TTITLE15=Johnny Come Lately
EXTD=YEAR: 2002 ID3G: 2
EXTT0=
EXTT1=
EXTT2=
EXTT3=
EXTT4=
EXTT5=
EXTT6=
EXTT7=
EXTT8=
EXTT9=
EXTT10=
EXTT11=
EXTT12=
EXTT13=
EXTT14=
EXTT15=
PLAYORDER=
